<mxfile host="65bd71144e">
    <diagram id="kiO2G3V5DhL0nGUtdDYw" name="Page-1">
        <mxGraphModel dx="648" dy="534" grid="1" gridSize="10" guides="1" tooltips="1" connect="1" arrows="1" fold="1" page="1" pageScale="1" pageWidth="850" pageHeight="1100" math="0" shadow="0">
            <root>
                <mxCell id="0"/>
                <mxCell id="1" parent="0"/>
                <mxCell id="2" value="" style="shape=umlLifeline;participant=umlActor;perimeter=lifelinePerimeter;whiteSpace=wrap;html=1;container=1;collapsible=0;recursiveResize=0;verticalAlign=top;spacingTop=36;outlineConnect=0;" parent="1" vertex="1">
                    <mxGeometry x="243.85" y="100" width="20" height="420" as="geometry"/>
                </mxCell>
                <mxCell id="3" value="" style="html=1;points=[];perimeter=orthogonalPerimeter;" parent="2" vertex="1">
                    <mxGeometry x="5" y="70" width="10" height="350" as="geometry"/>
                </mxCell>
                <mxCell id="4" value="&amp;nbsp;:AppInterface" style="shape=umlLifeline;perimeter=lifelinePerimeter;whiteSpace=wrap;html=1;container=1;collapsible=0;recursiveResize=0;outlineConnect=0;" parent="1" vertex="1">
                    <mxGeometry x="363.85" y="120" width="100" height="410" as="geometry"/>
                </mxCell>
                <mxCell id="5" value="" style="html=1;points=[];perimeter=orthogonalPerimeter;" parent="4" vertex="1">
                    <mxGeometry x="45" y="60" width="10" height="230" as="geometry"/>
                </mxCell>
                <mxCell id="6" value="Login" style="html=1;verticalAlign=bottom;endArrow=block;exitX=1.071;exitY=0.057;exitDx=0;exitDy=0;exitPerimeter=0;entryX=-0.043;entryY=0.026;entryDx=0;entryDy=0;entryPerimeter=0;" parent="1" source="3" target="5" edge="1">
                    <mxGeometry width="80" relative="1" as="geometry">
                        <mxPoint x="363.85" y="230" as="sourcePoint"/>
                        <mxPoint x="403.85" y="186" as="targetPoint"/>
                    </mxGeometry>
                </mxCell>
                <mxCell id="7" value=":Backend" style="shape=umlLifeline;perimeter=lifelinePerimeter;whiteSpace=wrap;html=1;container=1;collapsible=0;recursiveResize=0;outlineConnect=0;" parent="1" vertex="1">
                    <mxGeometry x="483.85" y="120" width="110" height="430" as="geometry"/>
                </mxCell>
                <mxCell id="8" value="" style="html=1;points=[];perimeter=orthogonalPerimeter;" parent="7" vertex="1">
                    <mxGeometry x="50" y="60" width="10" height="230" as="geometry"/>
                </mxCell>
                <mxCell id="9" value="get" style="html=1;verticalAlign=bottom;endArrow=block;exitX=0.8;exitY=0.081;exitDx=0;exitDy=0;exitPerimeter=0;entryX=0.05;entryY=0.074;entryDx=0;entryDy=0;entryPerimeter=0;" parent="1" source="5" target="8" edge="1">
                    <mxGeometry width="80" relative="1" as="geometry">
                        <mxPoint x="422.35" y="202.07999999999998" as="sourcePoint"/>
                        <mxPoint x="529.85" y="201.04000000000002" as="targetPoint"/>
                    </mxGeometry>
                </mxCell>
                <mxCell id="10" value="" style="html=1;verticalAlign=bottom;endArrow=open;dashed=1;endSize=8;entryX=1;entryY=0.352;entryDx=0;entryDy=0;entryPerimeter=0;" parent="1" source="7" target="5" edge="1">
                    <mxGeometry relative="1" as="geometry">
                        <mxPoint x="528.85" y="260" as="sourcePoint"/>
                        <mxPoint x="413.85" y="260" as="targetPoint"/>
                    </mxGeometry>
                </mxCell>
                <mxCell id="11" value="userUnknow" style="html=1;verticalAlign=bottom;endArrow=open;dashed=1;endSize=8;entryX=1.365;entryY=0.317;entryDx=0;entryDy=0;entryPerimeter=0;exitX=-0.367;exitY=0.441;exitDx=0;exitDy=0;exitPerimeter=0;" parent="1" source="5" target="3" edge="1">
                    <mxGeometry relative="1" as="geometry">
                        <mxPoint x="403.85" y="280" as="sourcePoint"/>
                        <mxPoint x="283.85" y="280" as="targetPoint"/>
                    </mxGeometry>
                </mxCell>
                <mxCell id="12" value="201" style="html=1;verticalAlign=bottom;endArrow=open;dashed=1;endSize=8;exitX=-0.35;exitY=0.661;exitDx=0;exitDy=0;exitPerimeter=0;entryX=1.3;entryY=0.665;entryDx=0;entryDy=0;entryPerimeter=0;" parent="1" source="8" target="5" edge="1">
                    <mxGeometry relative="1" as="geometry">
                        <mxPoint x="513.85" y="330" as="sourcePoint"/>
                        <mxPoint x="413.85" y="330" as="targetPoint"/>
                    </mxGeometry>
                </mxCell>
                <mxCell id="13" value="userCreated" style="html=1;verticalAlign=bottom;endArrow=open;dashed=1;endSize=8;exitX=-0.2;exitY=0.737;exitDx=0;exitDy=0;exitPerimeter=0;entryX=0.876;entryY=0.605;entryDx=0;entryDy=0;entryPerimeter=0;" parent="1" source="5" target="2" edge="1">
                    <mxGeometry x="-0.1341" y="1" relative="1" as="geometry">
                        <mxPoint x="373.85" y="350" as="sourcePoint"/>
                        <mxPoint x="293.85" y="350" as="targetPoint"/>
                        <mxPoint as="offset"/>
                    </mxGeometry>
                </mxCell>
                <mxCell id="14" value="alt" style="shape=umlFrame;whiteSpace=wrap;html=1;" parent="1" vertex="1">
                    <mxGeometry x="220" y="225" width="350" height="170" as="geometry"/>
                </mxCell>
                <mxCell id="15" value="" style="html=1;verticalAlign=bottom;endArrow=none;dashed=1;endSize=8;exitX=-0.011;exitY=0.466;exitDx=0;exitDy=0;exitPerimeter=0;endFill=0;entryX=0.988;entryY=0.466;entryDx=0;entryDy=0;entryPerimeter=0;" parent="1" source="14" target="14" edge="1">
                    <mxGeometry relative="1" as="geometry">
                        <mxPoint x="413.85" y="360" as="sourcePoint"/>
                        <mxPoint x="333.85" y="360" as="targetPoint"/>
                    </mxGeometry>
                </mxCell>
                <mxCell id="16" value="404" style="text;html=1;align=center;verticalAlign=middle;resizable=0;points=[];autosize=1;strokeColor=none;fillColor=none;" vertex="1" parent="1">
                    <mxGeometry x="460" y="235" width="40" height="30" as="geometry"/>
                </mxCell>
            </root>
        </mxGraphModel>
    </diagram>
</mxfile>